<svg fill="none" height="40" viewBox="0 0 179 40" width="179" xmlns="http://www.w3.org/2000/svg" xmlns:xlink="http://www.w3.org/1999/xlink"><clipPath id="a"><path d="m0 0h179v40h-179z"/></clipPath><g clip-path="url(#a)"><g clip-rule="evenodd" fill="#ed0007" fill-rule="evenodd"><path d="m76.5608 19.3776c1.0816-.4201 2.0096-1.1618 2.6597-2.1258.6502-.964.9914-2.1044.9781-3.2684 0-4.85477-3.4311-7.26141-8.1438-7.26141h-12.3606v26.39831h13.4354c4.1339 0 8.1852-2.9045 8.1852-7.3444 0-5.278-4.754-6.3485-4.754-6.3983zm-10.4176-7.1784h4.7954c.3071-.0191.6149.0227.9058.1232.2909.1004.5592.2574.7896.4621s.4183.4529.553.7305c.1347.2777.2135.5792.232.8875v.2863c-.0131.649-.2811 1.2665-.7457 1.718-.4645.4516-1.0881.7006-1.7347.6928h-4.8367zm4.8367 15.3942h-4.7954v-5.1868h4.6714c2.3563 0 3.4725 1.0374 3.4725 2.5726 0 1.9171-1.4055 2.6142-3.3485 2.6142z"/><path d="m95.5356 6.05809c-7.6065 0-12.0712 6.09961-12.0712 13.81741 0 7.7179 4.4647 13.8174 12.0712 13.8174 7.6064 0 12.0714-6.058 12.0714-13.8174 0-7.7593-4.424-13.81741-12.0714-13.81741zm0 21.32781c-3.7206 0-5.5809-3.361-5.5809-7.5104s1.8603-7.4689 5.5809-7.4689c3.7205 0 5.6224 3.361 5.6224 7.4689 0 4.1909-1.9019 7.5104-5.6224 7.5104z"/><path d="m121.621 17.0954-.91-.2074c-2.232-.4565-4.01-1.0374-4.01-2.6556 0-1.7428 1.695-2.4482 3.184-2.4482 1.015.0152 2.016.2405 2.941.6617s1.753 1.0294 2.433 1.7865l4.092-4.0664c-1.86-2.11621-4.878-4.14941-9.59-4.14941-5.54 0-9.757 3.11204-9.757 8.29881 0 4.7302 3.39 7.0539 7.524 7.9253l.91.2074c3.431.7054 4.712 1.2448 4.712 2.9046 0 1.5768-1.405 2.6141-3.555 2.6141-2.563 0-4.878-1.1203-6.656-3.4025l-4.175 4.1494c2.315 2.7801 5.25 4.9378 10.914 4.9378 4.919 0 10.169-2.8216 10.169-8.5893.083-6.0166-4.464-7.1784-8.226-7.9668z"/><path d="m144.564 27.3859c-2.894 0-5.911-2.4067-5.911-7.6764 0-4.6888 2.811-7.3029 5.746-7.3029 2.315 0 3.679 1.0789 4.754 2.9461l5.291-3.527c-2.645-4.02487-5.787-5.72611-10.128-5.72611-7.937 0-12.236 6.18261-12.236 13.65141 0 7.8424 4.754 13.9834 12.154 13.9834 5.208 0 7.689-1.8257 10.376-5.7261l-5.333-3.6017c-1.075 1.7345-2.232 2.9793-4.713 2.9793z"/><path d="m172.096 6.72199v9.70951h-7.978v-9.70951h-6.904v26.39001h6.904v-10.4149h7.978v10.4149h6.904v-26.39001z"/></g><path d="m19.9256 0c-3.9409 0-7.7933 1.17298-11.07005 3.37061-3.27675 2.19762-5.83067 5.3212-7.33879 8.97569-1.50812651 3.6546-1.902721 7.6759-1.133886 11.5555.768836 3.8796 2.666566 7.4433 5.453216 10.2403 2.78665 2.7971 6.33711 4.7019 10.20221 5.4736 3.8652.7717 7.8716.3756 11.5126-1.1381 3.6409-1.5138 6.7528-4.0772 8.9423-7.3662s3.3581-7.1558 3.3581-11.1114c0-5.3043-2.0993-10.39141-5.8361-14.14214-3.7368-3.75072-8.8049-5.85786-14.0896-5.85786zm0 38.1328c-3.5729 0-7.0657-1.0635-10.03653-3.0559-2.97083-1.9925-5.28632-4.8245-6.65364-8.1378s-1.72508-6.9592-1.02802-10.4766c.69705-3.5174 2.41761-6.7484 4.9441-9.28431 2.52648-2.53592 5.74539-4.2629 9.24979-4.96255 3.5043-.69966 7.1366-.34057 10.4377 1.03185 3.301 1.37243 6.1224 3.69656 8.1074 6.67848 1.9851 2.98193 3.0446 6.48773 3.0446 10.07403-.0011 4.8088-1.9048 9.4203-5.2924 12.8206-3.3877 3.4003-7.9821 5.3111-12.773 5.3122z" fill="#000"/><path d="m28.1518 7.51038h-1.3642v6.84642h-13.6834v-6.84642h-1.4055c-2.05869 1.36319-3.74823 3.21782-4.91722 5.39752-1.16899 2.1798-1.78091 4.6166-1.78091 7.0921s.61192 4.9123 1.78091 7.0921c1.16899 2.1797 2.85853 4.0343 4.91722 5.3975h1.4055v-6.8382h13.6834v6.8465h1.3642c2.0595-1.3625 3.75-3.2169 4.9196-5.3967 1.1696-2.1799 1.7819-4.617 1.7819-7.0929s-.6123-4.913-1.7819-7.0929c-1.1696-2.1798-2.8601-4.03419-4.9196-5.39673zm-16.9492 22.29042c-1.28209-1.1434-2.32723-2.5291-3.07574-4.078s-1.18573-3.2306-1.28669-4.9491c-.10096-1.7184.13632-3.4401.69828-5.0665s1.4376-3.1258 2.57695-4.4126c.3415-.3829.7045-.7458 1.0872-1.0871zm15.585-6.0581h-13.6834v-7.5186h13.6834zm1.8603 6.0166v-19.5518c1.2789 1.1527 2.319 2.5471 3.0609 4.1034s1.1709 3.2442 1.2627 4.967c.0918 1.7229-.1556 3.447-.7279 5.0738-.5724 1.6269-1.4585 3.1246-2.6077 4.4076-.3126.347-.6424.678-.988.9917z" fill="#000"/></g></svg>